<svg width="105" height="86" viewBox="0 0 105 86" fill="none" xmlns="http://www.w3.org/2000/svg">
<path d="M28.278 47.7534L44.2617 47.5065L54.7619 29.1892L32.8696 33.7747L28.278 47.7534Z" fill="url(#paint0_linear_1_9)"/>
<path d="M31.1258 2.29666C25.7979 2.87759 21.4387 5.25034 21.4387 5.25034C21.4387 5.25034 8.16707 12.7557 4.67969 15.0799C1.19232 17.4043 2.54848 22.1491 2.54848 22.1491L10.8796 39.3868C15.0449 44.9069 17.273 45.7787 24.6354 47.4037C31.9974 49.0288 36.8414 45.4589 36.8414 45.4589C36.8414 45.4589 50.0158 37.8374 53.4654 34.8356C56.9149 31.8336 53.9271 23.6018 53.9271 23.6018C53.9271 23.6018 48.6597 10.044 46.7738 6.46101C44.8877 2.87781 41.4912 1.81243 39.3661 1.61856C39.1534 1.59917 38.9013 1.59053 38.6191 1.59053C36.0792 1.59053 31.1258 2.29666 31.1258 2.29666Z" fill="url(#paint1_linear_1_9)"/>
<path d="M39.3661 5.25034L23.6669 15.0799C19.4905 17.6949 21.4387 22.4397 21.4387 22.4397C21.4387 22.4397 27.6384 36.0944 30.3508 41.4779C33.0636 46.8613 37.5281 44.2293 37.5281 44.2293C37.5281 44.2293 48.6599 36.6756 51.8274 34.1806C54.9947 31.6859 53.4654 24.7092 53.4654 24.7092C53.4654 24.7092 48.369 11.6903 45.9473 7.429C44.7225 5.27417 43.0535 4.7416 41.7024 4.7416C40.3823 4.7416 39.3661 5.25034 39.3661 5.25034Z" fill="url(#paint2_linear_1_9)"/>
<path d="M9.32952 18.5664C1.38601 18.0822 3.61419 22.9242 3.61419 22.9242C3.61419 22.9242 8.86173 35.2117 9.86133 37.2804C10.8609 39.349 12.0215 40.8405 14.2649 43.2158C16.508 45.5911 21.7292 47.4248 26.7643 47.7422C31.7992 48.0599 28.7086 41.4779 28.7086 41.4779C28.7086 41.4779 25.3135 34.0606 20.9847 25.6772C17.6639 19.2459 12.5793 18.4973 10.391 18.4973C9.72697 18.4973 9.32952 18.5664 9.32952 18.5664Z" fill="url(#paint3_linear_1_9)"/>
<mask id="mask0_1_9" style="mask-type:luminance" maskUnits="userSpaceOnUse" x="-17" y="-47" width="143" height="185">
<path d="M-17 -47H126V138H-17V-47Z" fill="white"/>
</mask>
<g mask="url(#mask0_1_9)">
<mask id="mask1_1_9" style="mask-type:luminance" maskUnits="userSpaceOnUse" x="4" y="2" width="37" height="16">
<path d="M4.7402 2.10163H40.1921V17.1228H4.7402V2.10163Z" fill="white"/>
</mask>
<g mask="url(#mask1_1_9)">
<g opacity="0.300003">
<path d="M28.3166 10.5282L38.2944 4.74177C38.2944 4.74177 43.0368 2.03008 37.5282 2.10296C32.0199 2.1756 26.9348 3.0373 25.4494 3.57595C23.9643 4.1146 21.0414 5.47173 19.564 6.31474C18.0865 7.15752 5.83878 14.3379 5.83878 14.3379C5.83878 14.3379 2.1612 17.3073 8.26417 17.1134C14.3671 16.9198 18.6158 16.6761 24.926 12.7556L28.3166 10.5282Z" fill="white"/>
</g>
</g>
</g>
<path d="M15.3224 23.3822C14.5796 23.83 14.7619 25.4945 15.7292 27.1009C16.6971 28.7077 18.0838 29.6475 18.8266 29.2001C19.5697 28.7526 19.3877 27.0878 18.4198 25.4812C17.6154 24.1456 16.5211 23.2708 15.7479 23.2708C15.5912 23.2708 15.4477 23.3068 15.3224 23.3822Z" fill="url(#paint4_linear_1_9)"/>
<path d="M13.409 35.2003C12.666 35.6481 12.8482 37.3126 13.8156 38.919C14.7834 40.5258 16.1702 41.4653 16.913 41.0184C17.6562 40.5711 17.4742 38.9061 16.5064 37.2997C15.7017 35.9636 14.6074 35.0891 13.8345 35.0891C13.6777 35.0891 13.5342 35.1251 13.409 35.2003Z" fill="url(#paint5_linear_1_9)"/>
<path d="M27.1541 21.5939C27.1541 23.5322 28.4333 25.1028 30.012 25.1028C31.5901 25.1028 32.8696 23.5322 32.8696 21.5939C32.8696 19.6563 31.5901 18.0852 30.012 18.0852C28.4333 18.0852 27.1541 19.6563 27.1541 21.5939Z" fill="url(#paint6_linear_1_9)"/>
<path d="M38.3275 14.2964C38.3275 16.2343 39.607 17.8054 41.1854 17.8054C42.764 17.8054 44.043 16.2343 44.043 14.2964C44.043 12.3586 42.764 10.7873 41.1854 10.7873C39.607 10.7873 38.3275 12.3586 38.3275 14.2964Z" fill="url(#paint7_linear_1_9)"/>
<path d="M30.2148 28.316C30.2148 30.2541 31.4943 31.8252 33.0727 31.8252C34.651 31.8252 35.9303 30.2541 35.9303 28.316C35.9303 26.3784 34.651 24.8071 33.0727 24.8071C31.4943 24.8071 30.2148 26.3784 30.2148 28.316Z" fill="url(#paint8_linear_1_9)"/>
<path d="M41.1853 20.9275C41.1853 22.8653 42.4649 24.4362 44.043 24.4362C45.6216 24.4362 46.9009 22.8653 46.9009 20.9275C46.9009 18.9894 45.6216 17.4183 44.043 17.4183C42.4649 17.4183 41.1853 18.9894 41.1853 20.9275Z" fill="url(#paint9_linear_1_9)"/>
<path d="M44.2619 27.6274C44.2619 29.5652 45.541 31.1363 47.1196 31.1363C48.6978 31.1363 49.9773 29.5652 49.9773 27.6274C49.9773 25.6893 48.6978 24.1183 47.1196 24.1183C45.541 24.1183 44.2619 25.6893 44.2619 27.6274Z" fill="url(#paint10_linear_1_9)"/>
<path d="M33.2874 35.0893C33.2874 37.0271 34.5669 38.5982 36.1453 38.5982C37.7237 38.5982 39.003 37.0271 39.003 35.0893C39.003 33.1515 37.7237 31.5801 36.1453 31.5801C34.5669 31.5801 33.2874 33.1515 33.2874 35.0893Z" fill="url(#paint11_linear_1_9)"/>
<path d="M31.1721 5.40358C29.4098 6.2508 28.1212 7.22766 28.2934 7.58551C28.4656 7.9436 30.0334 7.54698 31.7957 6.69953C33.558 5.85231 34.8471 4.87522 34.6744 4.51713C34.6314 4.4279 34.5015 4.38562 34.3031 4.38562C33.7073 4.38562 32.4943 4.76776 31.1721 5.40358Z" fill="url(#paint12_linear_1_9)"/>
<path d="M20.1718 12.2418C18.4096 13.089 17.1209 14.0661 17.2931 14.424C17.4653 14.7821 19.0332 14.3854 20.7955 13.538C22.5577 12.6908 23.8466 11.7135 23.6742 11.3556C23.6312 11.2661 23.5012 11.2239 23.3029 11.2239C22.707 11.2239 21.4941 11.606 20.1718 12.2418Z" fill="url(#paint13_linear_1_9)"/>
<path d="M12.107 12.5688C10.345 13.416 9.05638 14.3931 9.22858 14.751C9.40079 15.1088 10.9687 14.7122 12.7307 13.8648C14.4929 13.0175 15.7818 12.0405 15.6094 11.6824C15.5666 11.5931 15.4367 11.5509 15.2383 11.5509C14.6423 11.5509 13.4293 11.933 12.107 12.5688Z" fill="url(#paint14_linear_1_9)"/>
<path d="M22.876 5.94922C21.1139 6.79644 19.8253 7.77376 19.9975 8.13138C20.1697 8.48947 21.7376 8.09284 23.4999 7.24539C25.2619 6.39818 26.5508 5.42108 26.3783 5.063C26.3356 4.97353 26.2056 4.93126 26.0073 4.93126C25.4114 4.9315 24.1983 5.3134 22.876 5.94922Z" fill="url(#paint15_linear_1_9)"/>
<path d="M48.8534 24.0858C48.8534 24.0858 41.3945 41.324 38.5849 48.4899C35.7756 55.6558 39.4567 62.0479 39.4567 62.0479C39.4567 62.0479 42.363 66.2121 46.4317 70.7637C50.5002 75.3154 57.5722 77.5424 57.5722 77.5424L80.9183 83.4498C89.9275 85.7739 92.8336 77.5424 92.8336 77.5424C92.8336 77.5424 99.6146 60.9825 101.358 54.7848C103.102 48.5871 103.102 42.7762 98.4522 33.8672C93.8023 24.9578 85.0838 23.0209 85.0838 23.0209L60.3812 18.1786C59.8842 18.1149 59.4027 18.0852 58.9367 18.0852C52.3202 18.0854 48.8534 24.0858 48.8534 24.0858Z" fill="url(#paint16_linear_1_9)"/>
<mask id="mask2_1_9" style="mask-type:luminance" maskUnits="userSpaceOnUse" x="-17" y="-47" width="143" height="185">
<path d="M-17 -47H126V138H-17V-47Z" fill="white"/>
</mask>
<g mask="url(#mask2_1_9)">
<mask id="mask3_1_9" style="mask-type:luminance" maskUnits="userSpaceOnUse" x="39" y="19" width="51" height="45">
<path d="M39.3658 19.554H89.5331V63.4018H39.3658V19.554Z" fill="white"/>
</mask>
<g mask="url(#mask3_1_9)">
<g opacity="0.300003">
<path d="M60.9628 19.631L84.4059 24.2794C84.4059 24.2794 91.5746 25.8287 88.959 33.3824C86.3434 40.9361 79.7561 57.399 79.7561 57.399C79.7561 57.399 76.5591 64.9525 68.7126 63.1125C60.8658 61.2726 43.5257 57.2054 43.5257 57.2054C43.5257 57.2054 37.5197 54.9779 39.9415 48.7802C42.3632 42.5825 49.7256 25.5382 49.7256 25.5382C49.7256 25.5382 52.6316 18.7595 60.9628 19.631Z" fill="white"/>
</g>
</g>
<path d="M60.5784 33.4814C58.2069 34.7521 55.4596 34.2436 54.4413 32.3453C53.4235 30.4464 54.52 27.8777 56.8914 26.6068C59.2629 25.3356 62.0105 25.8448 63.0281 27.7434C64.0463 29.6415 62.9493 32.2102 60.5784 33.4814Z" fill="white"/>
<path d="M66.293 44.083C63.9216 45.3537 61.1742 44.8452 60.1559 42.9468C59.1383 41.0482 60.2349 38.4793 62.6061 37.2083C64.9775 35.9371 67.7251 36.4464 68.7427 38.3449C69.7612 40.2431 68.6642 42.8118 66.293 44.083Z" fill="white"/>
<path d="M53.6703 50.841C51.2991 52.1117 48.552 51.6032 47.5337 49.7048C46.5159 47.8062 47.6124 45.2375 49.9839 43.9663C52.3553 42.6954 55.1024 43.2044 56.1205 45.103C57.1385 47.0011 56.0417 49.5698 53.6703 50.841Z" fill="white"/>
<path d="M79.1285 37.4106C76.6204 38.7545 73.7146 38.2167 72.6382 36.2086C71.561 34.2002 72.7209 31.4832 75.2292 30.1391C77.7378 28.7943 80.6436 29.333 81.7203 31.3411C82.797 33.3486 81.6371 36.0659 79.1285 37.4106Z" fill="white"/>
<path d="M71.9294 55.1765C69.4213 56.5205 66.5155 55.9826 65.4388 53.9745C64.3618 51.9663 65.5215 49.2492 68.03 47.905C70.5384 46.5604 73.4442 47.0989 74.5211 49.1072C75.5978 51.1144 74.4379 53.8317 71.9294 55.1765Z" fill="white"/>
</g>
<path d="M90.8961 33.7745L86.3187 45.9964C86.3187 45.9964 83.4126 52.8963 81.233 58.9249C79.0535 64.9533 82.4682 73.233 86.3187 77.6636C90.1694 82.094 92.2039 77.373 92.2039 77.373L99.0335 58.852C99.0335 58.852 100.85 54.5669 101.722 49.5553C102.593 44.5437 100.528 38.3985 96.8539 33.1407C95.72 31.5183 94.719 30.9574 93.8764 30.9577C91.9882 30.9581 90.8961 33.7745 90.8961 33.7745Z" fill="url(#paint17_linear_1_9)"/>
<path d="M41.0068 62.2413C41.0068 62.2413 42.9443 65.1467 47.1535 69.9889C51.3629 74.8309 57.7659 76.9614 57.7659 76.9614C57.7659 76.9614 79.4652 82.5783 82.1226 83.0622C84.7798 83.5467 85.8588 80.8348 81.5964 74.3467C77.334 67.8584 68.5184 65.2436 68.5184 65.2436L56.5008 62.2413C56.5008 62.2413 49.3377 60.3047 44.2035 59.4332C43.6598 59.3409 43.1955 59.2998 42.7997 59.2998C39.4581 59.2998 41.0068 62.2413 41.0068 62.2413Z" fill="url(#paint18_linear_1_9)"/>
<path d="M89.9282 55.5668C89.3948 58.0604 89.6939 60.2379 90.5956 60.4308C91.4977 60.624 92.6621 58.7595 93.1953 56.266C93.7294 53.7722 93.4303 51.5947 92.5282 51.4018C92.485 51.3924 92.4415 51.388 92.3973 51.388C91.5164 51.3882 90.4364 53.1922 89.9282 55.5668Z" fill="url(#paint19_linear_1_9)"/>
<path d="M65.0953 67.468C64.8138 68.1478 66.4615 69.475 68.7757 70.4334C71.0899 71.3916 73.194 71.6177 73.4755 70.938C73.7571 70.2582 72.1093 68.931 69.7952 67.9726C68.3829 67.3879 67.049 67.0759 66.1596 67.0759C65.5916 67.0761 65.2049 67.2034 65.0953 67.468Z" fill="url(#paint20_linear_1_9)"/>
<path d="M58.918 69.4734C58.6362 70.1531 60.2838 71.4804 62.5977 72.4385C64.9121 73.3969 67.0162 73.6231 67.2978 72.9431C67.5794 72.2636 65.9313 70.9363 63.6174 69.9779C62.2049 69.3933 60.871 69.0812 59.9819 69.0812C59.4141 69.0812 59.0276 69.2085 58.918 69.4734Z" fill="url(#paint21_linear_1_9)"/>
<path d="M53.2417 71.6004C52.9604 72.2799 54.6079 73.6074 56.9219 74.5656C59.2363 75.5237 61.3404 75.7498 61.622 75.0701C61.9035 74.3906 60.2555 73.0631 57.9413 72.1052C56.5289 71.5203 55.1951 71.2085 54.3058 71.2085C53.7383 71.2085 53.3516 71.3358 53.2417 71.6004Z" fill="url(#paint22_linear_1_9)"/>
<mask id="mask4_1_9" style="mask-type:luminance" maskUnits="userSpaceOnUse" x="-17" y="-47" width="143" height="185">
<path d="M-17 -47H126V138H-17V-47Z" fill="white"/>
</mask>
<g mask="url(#mask4_1_9)">
<path d="M62.1658 26.7259C62.1658 26.7259 59.5703 25.1637 56.2035 27.059C52.8269 28.9597 53.9672 33.5095 56.9461 34.0906C56.9461 34.0906 53.576 34.2784 53.4671 30.5378C53.3582 26.7974 59.2189 24.0981 62.1658 26.7259Z" fill="#ED1C24"/>
<path d="M57.0449 34.0591C57.0449 34.0591 54.3653 31.9444 55.418 29.4381C56.6468 26.5133 60.9842 26.2847 60.9842 26.2847C60.9842 26.2847 57.8627 25.0945 55.1988 27.8562C52.5346 30.6179 54.4987 34.1808 57.0449 34.0591Z" fill="#D3D2D2"/>
<path d="M80.897 30.301C80.897 30.301 78.2744 28.6446 74.8737 30.6537C71.4625 32.6691 72.6144 37.4921 75.6235 38.1076C75.6235 38.1076 72.2191 38.3069 72.109 34.342C71.9992 30.3764 77.9197 27.5152 80.897 30.301Z" fill="#ED1C24"/>
<path d="M75.7236 38.0742C75.7236 38.0742 73.0166 35.8329 74.0803 33.1759C75.3212 30.0753 79.7033 29.8335 79.7033 29.8335C79.7033 29.8335 76.5494 28.5717 73.8588 31.4992C71.167 34.4265 73.151 38.2036 75.7236 38.0742Z" fill="#D3D2D2"/>
<path d="M68.4518 37.8135C68.4518 37.8135 65.9942 35.9924 62.4241 37.5631C58.843 39.1384 59.5447 43.8129 62.4825 44.687C62.4825 44.687 59.076 44.5449 59.3323 40.7835C59.5889 37.0216 65.7456 34.8894 68.4518 37.8135Z" fill="#ED1C24"/>
<path d="M62.5852 44.6649C62.5852 44.6649 60.0979 42.2821 61.402 39.872C62.9233 37.0593 67.3068 37.2558 67.3068 37.2558C67.3068 37.2558 64.2842 35.7559 61.3358 38.2644C58.387 40.7724 60.0131 44.5378 62.5852 44.6649Z" fill="#D3D2D2"/>
<path d="M55.9068 44.5821C55.9068 44.5821 53.4496 42.7608 49.8793 44.3317C46.2982 45.907 46.9996 50.5815 49.9377 51.4556C49.9377 51.4556 46.5311 51.3133 46.7875 47.5524C47.0438 43.7902 53.2005 41.6581 55.9068 44.5821Z" fill="#ED1C24"/>
<path d="M50.0404 51.4334C50.0404 51.4334 47.5531 49.0506 48.8571 46.6407C50.3785 43.8279 54.762 44.0243 54.762 44.0243C54.762 44.0243 51.7393 42.5244 48.791 45.0329C45.842 47.5409 47.4683 51.3063 50.0404 51.4334Z" fill="#D3D2D2"/>
<path d="M73.9714 48.3578C73.9714 48.3578 71.5266 46.4092 67.9413 48.1345C64.3453 49.8649 65.0107 54.9101 67.9439 55.8316C67.9439 55.8316 64.5359 55.7045 64.8217 51.6387C65.1079 47.5715 71.2864 45.2196 73.9714 48.3578Z" fill="#ED1C24"/>
<path d="M68.0468 55.8069C68.0468 55.8069 65.5763 53.2517 66.9005 50.6374C68.4447 47.5865 72.8303 47.7641 72.8303 47.7641C72.8303 47.7641 69.8173 46.1673 66.847 48.9009C63.876 51.6341 65.4737 55.6899 68.0468 55.8069Z" fill="#D3D2D2"/>
</g>
<defs>
<linearGradient id="paint0_linear_1_9" x1="30.6146" y1="49.7842" x2="51.2011" y2="26.0946" gradientUnits="userSpaceOnUse">
<stop stop-color="#231F20"/>
<stop offset="0.432634" stop-color="#231F20"/>
<stop offset="1" stop-color="white"/>
</linearGradient>
<linearGradient id="paint1_linear_1_9" x1="3.86204" y1="14.3891" x2="54.718" y2="32.905" gradientUnits="userSpaceOnUse">
<stop stop-color="#FBCBBB"/>
<stop offset="0.288345" stop-color="#D91920"/>
<stop offset="0.687119" stop-color="#B01419"/>
<stop offset="1" stop-color="#730B0E"/>
</linearGradient>
<linearGradient id="paint2_linear_1_9" x1="37.4096" y1="44.8726" x2="37.4096" y2="4.74154" gradientUnits="userSpaceOnUse">
<stop stop-color="#D91920"/>
<stop offset="1" stop-color="#730B0E"/>
</linearGradient>
<linearGradient id="paint3_linear_1_9" x1="16.4868" y1="47.7535" x2="16.4868" y2="18.4974" gradientUnits="userSpaceOnUse">
<stop stop-color="#D91920"/>
<stop offset="1" stop-color="#730B0E"/>
</linearGradient>
<linearGradient id="paint4_linear_1_9" x1="14.8655" y1="26.2912" x2="19.2838" y2="26.2912" gradientUnits="userSpaceOnUse">
<stop stop-color="#918F90"/>
<stop offset="0.337501" stop-color="white"/>
<stop offset="1" stop-color="white"/>
</linearGradient>
<linearGradient id="paint5_linear_1_9" x1="12.9518" y1="38.1094" x2="17.3703" y2="38.1094" gradientUnits="userSpaceOnUse">
<stop stop-color="#918F90"/>
<stop offset="0.337501" stop-color="white"/>
<stop offset="1" stop-color="white"/>
</linearGradient>
<linearGradient id="paint6_linear_1_9" x1="27.154" y1="21.5939" x2="32.8696" y2="21.5939" gradientUnits="userSpaceOnUse">
<stop stop-color="#918F90"/>
<stop offset="0.337501" stop-color="white"/>
<stop offset="1" stop-color="white"/>
</linearGradient>
<linearGradient id="paint7_linear_1_9" x1="38.3276" y1="14.2962" x2="44.0431" y2="14.2962" gradientUnits="userSpaceOnUse">
<stop stop-color="#918F90"/>
<stop offset="0.337501" stop-color="white"/>
<stop offset="1" stop-color="white"/>
</linearGradient>
<linearGradient id="paint8_linear_1_9" x1="30.2149" y1="28.3162" x2="35.9304" y2="28.3162" gradientUnits="userSpaceOnUse">
<stop stop-color="#918F90"/>
<stop offset="0.337501" stop-color="white"/>
<stop offset="1" stop-color="white"/>
</linearGradient>
<linearGradient id="paint9_linear_1_9" x1="41.1854" y1="20.9272" x2="46.9009" y2="20.9272" gradientUnits="userSpaceOnUse">
<stop stop-color="#918F90"/>
<stop offset="0.337501" stop-color="white"/>
<stop offset="1" stop-color="white"/>
</linearGradient>
<linearGradient id="paint10_linear_1_9" x1="44.2617" y1="27.6273" x2="49.9773" y2="27.6273" gradientUnits="userSpaceOnUse">
<stop stop-color="#918F90"/>
<stop offset="0.337501" stop-color="white"/>
<stop offset="1" stop-color="white"/>
</linearGradient>
<linearGradient id="paint11_linear_1_9" x1="33.2875" y1="35.0892" x2="39.003" y2="35.0892" gradientUnits="userSpaceOnUse">
<stop stop-color="#918F90"/>
<stop offset="0.337501" stop-color="white"/>
<stop offset="1" stop-color="white"/>
</linearGradient>
<linearGradient id="paint12_linear_1_9" x1="28.2779" y1="6.05137" x2="34.6899" y2="6.05137" gradientUnits="userSpaceOnUse">
<stop stop-color="#918F90"/>
<stop offset="0.337501" stop-color="white"/>
<stop offset="1" stop-color="white"/>
</linearGradient>
<linearGradient id="paint13_linear_1_9" x1="17.2776" y1="12.8898" x2="23.6896" y2="12.8898" gradientUnits="userSpaceOnUse">
<stop stop-color="#918F90"/>
<stop offset="0.337501" stop-color="white"/>
<stop offset="1" stop-color="white"/>
</linearGradient>
<linearGradient id="paint14_linear_1_9" x1="9.21306" y1="13.2167" x2="15.625" y2="13.2167" gradientUnits="userSpaceOnUse">
<stop stop-color="#918F90"/>
<stop offset="0.337501" stop-color="white"/>
<stop offset="1" stop-color="white"/>
</linearGradient>
<linearGradient id="paint15_linear_1_9" x1="19.9821" y1="6.59722" x2="26.3939" y2="6.59722" gradientUnits="userSpaceOnUse">
<stop stop-color="#918F90"/>
<stop offset="0.337501" stop-color="white"/>
<stop offset="1" stop-color="white"/>
</linearGradient>
<linearGradient id="paint16_linear_1_9" x1="42.8545" y1="37.5552" x2="99.4334" y2="62.7538" gradientUnits="userSpaceOnUse">
<stop stop-color="#F6836C"/>
<stop offset="0.141098" stop-color="#D91920"/>
<stop offset="0.687119" stop-color="#B01419"/>
<stop offset="1" stop-color="#730B0E"/>
</linearGradient>
<linearGradient id="paint17_linear_1_9" x1="101.92" y1="55.2591" x2="80.5517" y2="55.2591" gradientUnits="userSpaceOnUse">
<stop stop-color="#D91920"/>
<stop offset="1" stop-color="#730B0E"/>
</linearGradient>
<linearGradient id="paint18_linear_1_9" x1="62.5535" y1="83.1171" x2="62.5535" y2="59.2996" gradientUnits="userSpaceOnUse">
<stop stop-color="#D91920"/>
<stop offset="1" stop-color="#730B0E"/>
</linearGradient>
<linearGradient id="paint19_linear_1_9" x1="89.3493" y1="59.7467" x2="93.7717" y2="52.0844" gradientUnits="userSpaceOnUse">
<stop stop-color="#918F90"/>
<stop offset="0.337501" stop-color="white"/>
<stop offset="1" stop-color="white"/>
</linearGradient>
<linearGradient id="paint20_linear_1_9" x1="68.3973" y1="70.5192" x2="70.1727" y2="67.8863" gradientUnits="userSpaceOnUse">
<stop stop-color="#918F90"/>
<stop offset="0.337501" stop-color="white"/>
<stop offset="1" stop-color="white"/>
</linearGradient>
<linearGradient id="paint21_linear_1_9" x1="62.5124" y1="72.429" x2="63.7028" y2="69.9876" gradientUnits="userSpaceOnUse">
<stop stop-color="#918F90"/>
<stop offset="0.337501" stop-color="white"/>
<stop offset="1" stop-color="white"/>
</linearGradient>
<linearGradient id="paint22_linear_1_9" x1="56.7079" y1="74.5885" x2="58.1549" y2="72.0815" gradientUnits="userSpaceOnUse">
<stop stop-color="#918F90"/>
<stop offset="0.337501" stop-color="white"/>
<stop offset="1" stop-color="white"/>
</linearGradient>
</defs>
</svg>
